<?xml version="1.0" encoding="UTF-8"?>
<!-- Range — top-down reference, north up. Sources: src/maps/rangeSpec.ts + BOT_SPAWNS/DOM_FLAGS in src/core/state.ts. Generated by scripts/mapSvg.mjs — do not edit by hand, run npm run maps:regen. Units are meters. Origin at map centre. +x east, +z south, north = -z (up). Stair arrows point UPHILL. No alpha anywhere: upper levels are opaque hatched slabs. -->
<svg xmlns="http://www.w3.org/2000/svg" viewBox="0 0 960 1295.07" font-family="system-ui, -apple-system, sans-serif">
<title>Range — top-down map</title>
<defs>
<pattern id="hatchW" width="1.1" height="1.1" patternUnits="userSpaceOnUse" patternTransform="rotate(45)"><rect width="1.1" height="1.1" fill="#cfccc0"/><line x1="0" y1="0" x2="0" y2="1.1" stroke="#767676" stroke-width="0.16"/></pattern>
<pattern id="hatchS" width="7" height="7" patternUnits="userSpaceOnUse" patternTransform="rotate(45)"><rect width="7" height="7" fill="#cfccc0"/><line x1="0" y1="0" x2="0" y2="7" stroke="#767676" stroke-width="1"/></pattern>
</defs>
<text x="480" y="36" text-anchor="middle" font-size="22" font-weight="700" fill="#222222">Range — top-down (north up)</text>
<text x="480" y="58" text-anchor="middle" font-size="12" fill="#555555">meters · origin at map centre · +x east · +z south · north = -z (up)</text>
<g transform="translate(922 150)">
<polygon points="0,-30 11,8 0,1 -11,8" fill="#222222"/>
<text x="0" y="28" text-anchor="middle" font-size="17" font-weight="800" fill="#222222">N</text>
<text x="0" y="43" text-anchor="middle" font-size="10" fill="#555555">-z</text>
</g>
<rect x="86.07" y="154.07" width="177.2" height="767.86" fill="#d9c69c" stroke="#8a7a55" stroke-width="1.5"/>
<path d="M86.07 154.07V921.93 M145.14 154.07V921.93 M204.2 154.07V921.93 M263.27 154.07V921.93 M86.07 154.07H263.27 M86.07 213.14H263.27 M86.07 272.2H263.27 M86.07 331.27H263.27 M86.07 390.34H263.27 M86.07 449.4H263.27 M86.07 508.47H263.27 M86.07 567.53H263.27 M86.07 626.6H263.27 M86.07 685.66H263.27 M86.07 744.73H263.27 M86.07 803.8H263.27 M86.07 862.86H263.27 M86.07 921.93H263.27" stroke="#cbbb90" stroke-width="1"/>
<path d="M115.6 154.07V921.93 M174.67 154.07V921.93 M233.74 154.07V921.93 M86.07 183.6H263.27 M86.07 242.67H263.27 M86.07 301.74H263.27 M86.07 360.8H263.27 M86.07 419.87H263.27 M86.07 478.93H263.27 M86.07 538H263.27 M86.07 597.07H263.27 M86.07 656.13H263.27 M86.07 715.2H263.27 M86.07 774.26H263.27 M86.07 833.33H263.27 M86.07 892.4H263.27" stroke="#b3a179" stroke-width="1.4"/>
<path d="M174.67 154.07V921.93 M86.07 715.2H263.27" stroke="#8a7a55" stroke-width="1.2" stroke-dasharray="7 5"/>
<rect x="-91.13" y="390.34" width="531.59" height="206.73" fill="#eed3cd" stroke="#922b21" stroke-width="1.6" stroke-dasharray="8 5"/>
<rect x="-91.13" y="833.33" width="531.59" height="206.73" fill="#d2e4f2" stroke="#1a5276" stroke-width="1.6" stroke-dasharray="8 5"/>
<rect x="112.65" y="242.67" width="5.91" height="587.71" fill="#a1804e" stroke="#5d4a26" stroke-width="1.2"/>
<rect x="230.78" y="242.67" width="5.91" height="587.71" fill="#a1804e" stroke="#5d4a26" stroke-width="1.2"/>
<rect x="112.65" y="830.38" width="124.04" height="5.91" fill="#a1804e" stroke="#5d4a26" stroke-width="1.2"/>
<rect x="112.65" y="236.76" width="124.04" height="5.91" fill="#b89b62" stroke="#5d4a26" stroke-width="1.2"/>
<rect x="121.51" y="743.55" width="106.32" height="2.36" fill="#3a3226" stroke="#3a3226" stroke-width="1.2"/>
<rect x="146.47" y="684.04" width="3.25" height="3.25" fill="none" stroke="#6b5320" stroke-width="1.8"/>
<circle cx="148.09" cy="685.66" r="2.4" fill="#6b5320"/>
<rect x="199.63" y="624.97" width="3.25" height="3.25" fill="none" stroke="#6b5320" stroke-width="1.8"/>
<circle cx="201.25" cy="626.6" r="2.4" fill="#6b5320"/>
<text x="206.87" y="630.6" font-size="11" fill="#6b5320" paint-order="stroke" stroke="#f2ecdc" stroke-width="3">+1</text>
<rect x="140.56" y="565.91" width="3.25" height="3.25" fill="none" stroke="#6b5320" stroke-width="1.8"/>
<circle cx="142.18" cy="567.53" r="2.4" fill="#6b5320"/>
<rect x="205.53" y="506.84" width="3.25" height="3.25" fill="none" stroke="#6b5320" stroke-width="1.8"/>
<circle cx="207.16" cy="508.47" r="2.4" fill="#6b5320"/>
<text x="212.78" y="512.47" font-size="11" fill="#6b5320" paint-order="stroke" stroke="#f2ecdc" stroke-width="3">+0.6</text>
<rect x="173.05" y="388.71" width="3.25" height="3.25" fill="none" stroke="#6b5320" stroke-width="1.8"/>
<circle cx="174.67" cy="390.34" r="2.4" fill="#6b5320"/>
<text x="145.14" y="689.66" text-anchor="middle" font-size="11" fill="#222222" paint-order="stroke" stroke="#f2ecdc" stroke-width="3">10 M</text>
<text x="204.2" y="689.66" text-anchor="middle" font-size="11" fill="#222222" paint-order="stroke" stroke="#f2ecdc" stroke-width="3">10 M</text>
<text x="145.14" y="630.6" text-anchor="middle" font-size="11" fill="#222222" paint-order="stroke" stroke="#f2ecdc" stroke-width="3">20 M</text>
<text x="204.2" y="630.6" text-anchor="middle" font-size="11" fill="#222222" paint-order="stroke" stroke="#f2ecdc" stroke-width="3">20 M</text>
<text x="145.14" y="571.53" text-anchor="middle" font-size="11" fill="#222222" paint-order="stroke" stroke="#f2ecdc" stroke-width="3">30 M</text>
<text x="204.2" y="571.53" text-anchor="middle" font-size="11" fill="#222222" paint-order="stroke" stroke="#f2ecdc" stroke-width="3">30 M</text>
<text x="145.14" y="512.47" text-anchor="middle" font-size="11" fill="#222222" paint-order="stroke" stroke="#f2ecdc" stroke-width="3">40 M</text>
<text x="204.2" y="512.47" text-anchor="middle" font-size="11" fill="#222222" paint-order="stroke" stroke="#f2ecdc" stroke-width="3">40 M</text>
<text x="145.14" y="453.4" text-anchor="middle" font-size="11" fill="#222222" paint-order="stroke" stroke="#f2ecdc" stroke-width="3">50 M</text>
<text x="204.2" y="453.4" text-anchor="middle" font-size="11" fill="#222222" paint-order="stroke" stroke="#f2ecdc" stroke-width="3">50 M</text>
<text x="145.14" y="394.34" text-anchor="middle" font-size="11" fill="#222222" paint-order="stroke" stroke="#f2ecdc" stroke-width="3">60 M</text>
<text x="204.2" y="394.34" text-anchor="middle" font-size="11" fill="#222222" paint-order="stroke" stroke="#f2ecdc" stroke-width="3">60 M</text>
<text x="174.67" y="382.34" text-anchor="middle" font-size="13" font-weight="700" fill="#922b21" paint-order="stroke" stroke="#f2ecdc" stroke-width="4">T pocket · x -45…45, z -55…-20</text>
<text x="174.67" y="825.33" text-anchor="middle" font-size="13" font-weight="700" fill="#1a5276" paint-order="stroke" stroke="#f2ecdc" stroke-width="4">CT pocket · x -45…45, z 20…55</text>
<rect x="86.07" y="947.93" width="59.07" height="6" fill="#222222"/>
<text x="115.6" y="969.93" text-anchor="middle" font-size="12" fill="#222222">10 m</text>
<text x="70" y="1060.07" font-size="15" font-weight="700" fill="#222222">Legend</text>
<g transform="translate(70 1098.07)"><g><svg x="0" y="-13" width="20" height="15"><rect x="0" y="0" width="18" height="13" fill="#b89b62" stroke="#5d4a26"/></svg></g><text x="28" y="0" font-size="13" fill="#222222">masonry (walls, buildings, towers, platforms)</text></g>
<g transform="translate(70 1122.07)"><g><svg x="0" y="-13" width="20" height="15"><rect x="0" y="5" width="18" height="3" fill="#3a3226"/></svg></g><text x="28" y="0" font-size="13" fill="#222222">painted floor marker (no collision)</text></g>
<g transform="translate(70 1146.07)"><g><svg x="0" y="-13" width="20" height="15"><rect x="0" y="0" width="18" height="13" fill="#eed3cd" stroke="#922b21" stroke-dasharray="3 2"/></svg></g><text x="28" y="0" font-size="13" fill="#222222">T spawn pocket</text></g>
<g transform="translate(70 1170.07)"><g><svg x="0" y="-13" width="20" height="15"><rect x="0" y="0" width="18" height="13" fill="#d2e4f2" stroke="#1a5276" stroke-dasharray="3 2"/></svg></g><text x="28" y="0" font-size="13" fill="#222222">CT spawn pocket</text></g>
<g transform="translate(70 1194.07)"><g><svg x="0" y="-13" width="20" height="15"><rect x="5" y="1.5" width="8" height="8" fill="none" stroke="#6b5320" stroke-width="1.6"/></svg></g><text x="28" y="0" font-size="13" fill="#222222">range target (+raised height)</text></g>
<text x="70" y="1232.07" font-size="12" fill="#555555">Target silhouettes are position markers; part dims match bots.ts (see builder).</text>
<text x="70" y="1283.07" font-size="12" fill="#555555">Source: src/maps/rangeSpec.ts + BOT_SPAWNS/DOM_FLAGS in src/core/state.ts · generated — do not edit by hand.</text>
</svg>
